<svg width="26" height="27" viewBox="0 0 26 27" fill="none" xmlns="http://www.w3.org/2000/svg">
<circle cx="13" cy="13.5" r="13" fill="#F2F2F7"/>
<g clip-path="url(#clip0_477_581)">
<path d="M8.03711 18.9307C7.64062 18.541 7.6543 17.8506 8.02344 17.4814L11.9336 13.5713L8.02344 9.67479C7.6543 9.29882 7.64062 8.61522 8.03711 8.21874C8.43359 7.81542 9.12402 7.82909 9.49316 8.20507L13.3965 12.1084L17.2998 8.20507C17.6826 7.82226 18.3525 7.82226 18.749 8.21874C19.1523 8.61522 19.1523 9.28515 18.7627 9.67479L14.8662 13.5713L18.7627 17.4746C19.1523 17.8643 19.1455 18.5273 18.749 18.9307C18.3594 19.3271 17.6826 19.3271 17.2998 18.9443L13.3965 15.041L9.49316 18.9443C9.12402 19.3203 8.44043 19.3271 8.03711 18.9307Z" fill="#8E8E93"/>
</g>
<defs>
<clipPath id="clip0_477_581">
<rect width="13" height="12" fill="white" transform="translate(7 7.5)"/>
</clipPath>
</defs>
</svg>
