<svg width="11" height="7" viewBox="0 0 11 7" fill="none" xmlns="http://www.w3.org/2000/svg">
<path d="M5.31445 6.48047C5.11914 6.48047 4.94141 6.40234 4.78125 6.24609L0.322266 1.68164C0.255859 1.61914 0.205078 1.54883 0.169922 1.4707C0.138672 1.38867 0.123047 1.30078 0.123047 1.20703C0.123047 1.07812 0.152344 0.960938 0.210938 0.855469C0.273438 0.75 0.355469 0.667969 0.457031 0.609375C0.558594 0.546875 0.673828 0.515625 0.802734 0.515625C0.990234 0.515625 1.1543 0.585938 1.29492 0.726562L5.60156 5.13867H5.0332L9.33398 0.726562C9.47461 0.585938 9.63867 0.515625 9.82617 0.515625C9.95508 0.515625 10.0703 0.546875 10.1719 0.609375C10.2734 0.667969 10.3535 0.75 10.4121 0.855469C10.4746 0.960938 10.5059 1.07812 10.5059 1.20703C10.5059 1.39062 10.4395 1.54883 10.3066 1.68164L5.84766 6.24609C5.77344 6.32422 5.69141 6.38281 5.60156 6.42188C5.51172 6.46094 5.41602 6.48047 5.31445 6.48047Z" fill="#86868A"/>
</svg>
